<svg xmlns="http://www.w3.org/2000/svg" version="1.1" xmlns:xlink="http://www.w3.org/1999/xlink" xmlns:svgjs="http://svgjs.com/svgjs" width="1440" height="560" preserveAspectRatio="none" viewBox="0 0 1440 560"><g mask="url(&quot;#SvgjsMask1012&quot;)" fill="none"><rect width="1440" height="560" x="0" y="0" fill="rgba(24, 10, 56, 1)"></rect><path d="M28.63 622.34C214.52 620.28 367.91 421.36 742.99 415.79 1118.07 410.22 1268.01 167.45 1457.35 163.79" stroke="rgba(78, 33, 183, 1)" stroke-width="2"></path><path d="M590.43 641.36C709.84 618.97 659.09 326.23 952.86 317.62 1246.62 309.01 1493.9 194.86 1677.71 194.42" stroke="rgba(78, 33, 183, 1)" stroke-width="2"></path><path d="M341.55 633.43C475.37 609.87 534.92 281.59 752.37 277.55 969.82 273.51 957.78 347.55 1163.18 347.55 1368.59 347.55 1469.82 277.8 1574 277.55" stroke="rgba(78, 33, 183, 1)" stroke-width="2"></path><path d="M712.36 631.05C869.98 597.69 931.85 192.27 1179.79 187.41 1427.72 182.55 1527.05 298.63 1647.21 299.41" stroke="rgba(78, 33, 183, 1)" stroke-width="2"></path><path d="M390.32 610.98C579.33 600.16 723.16 255.61 1058.96 255.47 1394.76 255.33 1550.89 481.9 1727.6 485.07" stroke="rgba(78, 33, 183, 1)" stroke-width="2"></path></g><defs><mask id="SvgjsMask1012"><rect width="1440" height="560" fill="#ffffff"></rect></mask></defs></svg>